:SAMPLES-PER-SECOND 30
:FULLY-SPECIFIED
:DEGREES
74
root  34.83942888 36.57058956 -14.39439068 10.02092361 -4.566252708 3.121360302
lowerback  -9.537280083 0.05675042048 -0.7164049149
upperback  -3.407840014 0.6384419799 -3.555079937
thorax  1.843379974 0.4812160134 -3.205349922
lowerneck  -12.75160027 -7.004340172 -4.94547987
upperneck  12.52639961 -9.543009758 7.239220142
head  6.496580124 -4.213069916 2.195480108
lclavicle  0 -4.497500157e-015 -2.743230041e-014
lhumerus  -47.38019943 31.42609978 62.73120117
lradius  -0.007183367386 -6.507048965e-006 29.32289886
lwrist  3.192251654e-007 -3.790274832e-007 -29.02510071
lhand  -4.415889985e-031 -36.90420151 -10.68029976
lfingers  90 7.125020027 -90
lthumb  94.81915335 -25.51588605 101.0739958
rclavicle  0 -4.497500157e-015 -2.743230041e-014
rhumerus  -6.683959961 -18.27359962 -51.50659943
rradius  -5.16745672e-007 2.214343908e-008 97.36599731
rwrist  0.0006954420824 -0.004670973402 -177.8849945
rhand  -1.76701974e-031 2.327069998 -7.994709969
rfingers  -90 -7.125020027 -90
rthumb  -85.75183725 -7.991852792 -61.88580688
rfemur  -12.20120811 15.49904728 12.72838306
rtibia  -0.2043448538 -1.000923753 18.91451454
rfoot  0.926628828 -21.85681725 -35.81712341
rtoes  4.163994598 19.57911119 -102.2572719
lfemur  -7.073726654 -15.77150249 -20.60948563
ltibia  4.155539036 0.102768667 11.71192074
lfoot  0.4572012424 -23.86924744 36.03637695
ltoes  -8.567530048 -18.14029234 -115.8218057
75
root  34.84096677 36.57154774 -14.39219347 10.03970432 -4.54650116 3.133955956
lowerback  -9.573189735 0.07857022434 -0.7188051939
upperback  -3.391570091 0.6698070168 -3.569659948
thorax  1.881760001 0.4971340001 -3.215579987
lowerneck  -12.70810032 -7.09762001 -5.019730091
upperneck  12.44810009 -9.670590401 7.358260155
head  6.482339859 -4.270279884 2.233150005
lclavicle  0 -4.497500157e-015 -2.743230041e-014
lhumerus  -47.34209824 31.39100075 62.76699829
lradius  -0.008214278147 -6.507048965e-006 29.32069778
lwrist  3.192251654e-007 -3.790274832e-007 -28.96929932
lhand  -4.415334415e-031 -36.89459991 -10.69569969
lfingers  90 7.125020027 -90
lthumb  94.81795781 -25.53138087 101.0651898
rclavicle  0 -4.497500157e-015 -2.743230041e-014
rhumerus  -5.010649681 -18.44919777 -51.25790024
rradius  -5.16745672e-007 2.214343908e-008 96.86229706
rwrist  0.0006954420824 -0.004670973402 -177.9091644
rhand  -1.766973208e-031 2.28963995 -7.897699833
rfingers  -90 -7.125020027 -90
rthumb  -85.71348002 -8.074961342 -61.91569796
rfemur  -12.21981335 15.5009594 12.71434116
rtibia  -0.2009631097 -1.006916165 18.92374229
rfoot  0.9181792736 -21.85825729 -35.83797836
rtoes  4.139797998 19.58404893 -102.1850753
lfemur  -7.103822231 -15.7348175 -20.61441422
ltibia  4.160286427 0.1031904668 11.70880604
lfoot  0.4367755651 -23.86045647 35.95121765
ltoes  -8.547081499 -18.14968136 -115.756144
76
root  34.8428561 36.57327186 -14.38956073 10.07082939 -4.535095692 3.119408607
lowerback  -9.595359802 0.08370580524 -0.7461190224
upperback  -3.374340057 0.6818109751 -3.593060017
thorax  1.912479997 0.5036910176 -3.223069906
lowerneck  -12.66180038 -7.124199867 -4.965099812
upperneck  12.34640026 -9.710840225 7.34428978
head  6.441189766 -4.291930199 2.218169928
lclavicle  0 -4.497500157e-015 -2.743230041e-014
lhumerus  -47.31779861 31.42930031 62.73059845
lradius  -0.009282435291 -6.507048965e-006 29.28650093
lwrist  3.192251654e-007 -3.790274832e-007 -28.99419975
lhand  -4.418073762e-031 -36.94189835 -10.58399963
lfingers  90 7.125020027 -90
lthumb  94.81628686 -25.42009557 101.1054926
rclavicle  0 -4.497500157e-015 -2.743230041e-014
rhumerus  -3.377090454 -18.4510994 -50.92910004
rradius  -5.16745672e-007 2.214343908e-008 96.36820221
rwrist  0.0006954420824 -0.004670973402 -178.0169983
rhand  -1.767278639e-031 2.525190115 -8.21088028
rfingers  -90 -7.125020027 -90
rthumb  -85.81407826 -7.814535013 -61.70727191
rfemur  -12.22966957 15.50568104 12.71418953
rtibia  -0.1873571128 -0.9882302284 18.88117027
rfoot  0.9479426742 -21.80002975 -35.83138275
rtoes  4.13326857 19.5853762 -102.1655961
lfemur  -7.177727699 -15.69798946 -20.56438255
ltibia  4.123384953 0.1407316923 11.77385998
lfoot  0.4554980695 -23.96435928 35.94265747
ltoes  -8.534047592 -18.15565134 -115.7143083
77
root  34.84441202 36.57453041 -14.38740708 10.09259224 -4.51576376 3.117949247
lowerback  -9.620471001 0.1038209572 -0.7489557862
upperback  -3.365050077 0.7100819945 -3.598850012
thorax  1.937420011 0.5179520249 -3.224230051
lowerneck  -12.60219955 -7.168360233 -5.000490189
upperneck  12.25380039 -9.763159752 7.350120068
head  6.406899929 -4.322720051 2.22258997
lclavicle  0 -4.497500157e-015 -2.743230041e-014
lhumerus  -47.31809998 31.44079971 62.74890137
lradius  -0.01038630307 -6.507048965e-006 29.28580093
lwrist  3.192251654e-007 -3.790274832e-007 -29.00839996
lhand  -4.41882207e-031 -36.95479965 -10.59980011
lfingers  90 7.125020027 -90
lthumb  94.82563991 -25.43504802 101.1206674
rclavicle  0 -4.497500157e-015 -2.743230041e-014
rhumerus  -1.799499273 -18.4442997 -50.53070068
rradius  -5.16745672e-007 2.214343908e-008 95.94719696
rwrist  0.0006954420824 -0.004670973402 -177.8350067
rhand  -3.535098273e-031 2.716749907 -8.05976963
rfingers  -90 -7.125020027 -90
rthumb  -85.70183371 -7.960304467 -61.51090001
rfemur  -12.2414217 15.4854784 12.70774746
rtibia  -0.1831160635 -0.9916719198 18.86787796
rfoot  0.9548329711 -21.79045105 -35.8233757
rtoes  4.135504555 19.58492193 -102.1722665
lfemur  -7.14593792 -15.75631905 -20.58697891
ltibia  4.16199255 0.1388365626 11.7117815
lfoot  0.4676807523 -23.93011475 35.99982452
ltoes  -8.548507898 -18.14902733 -115.7607232
78
root  34.84305134 36.57523929 -14.38209954 10.10420322 -4.474181175 3.126543522
lowerback  -9.632840157 0.1300430447 -0.7224166989
upperback  -3.358439922 0.7435439825 -3.611370087
thorax  1.953199983 0.5346829891 -3.248500109
lowerneck  -12.55150032 -7.231619835 -5.024340153
upperneck  12.17819977 -9.842329979 7.341869831
head  6.379970074 -4.366300106 2.217469931
lclavicle  0 -4.497500157e-015 -2.743230041e-014
lhumerus  -47.30509949 31.4810009 62.75870132
lradius  -0.01152434759 -6.507048965e-006 29.27090073
lwrist  3.192251654e-007 -3.790274832e-007 -29.02910042
lhand  -4.417146452e-031 -36.92589951 -10.65839958
lfingers  90 7.125020027 -90
lthumb  94.82462761 -25.49362004 101.0951321
rclavicle  0 -4.497500157e-015 -2.743230041e-014
rhumerus  -0.1888397783 -18.55380058 -50.16360092
rradius  -5.16745672e-007 2.214343908e-008 95.44380188
rwrist  0.0006954420824 -0.004670973402 -177.75
rhand  -1.767719639e-031 2.830820084 -7.771259785
rfingers  -90 -7.125020027 -90
rthumb  -85.53835829 -8.22128555 -61.38029063
rfemur  -12.24389362 15.44585133 12.70995235
rtibia  -0.1872210801 -0.996355176 18.87750435
rfoot  0.9416100383 -21.80467033 -35.83362579
rtoes  4.154345328 19.58108392 -102.2284788
lfemur  -7.111735344 -15.69332409 -20.6007309
ltibia  4.214413643 0.1839272082 11.6210041
lfoot  0.4705726802 -23.98156166 35.95035934
ltoes  -8.537614544 -18.15401868 -115.7257561
79
root  34.84094875 36.57556969 -14.37926255 10.10783482 -4.431992531 3.131268501
lowerback  -9.658459663 0.1547119766 -0.7161784172
upperback  -3.356260061 0.7783529758 -3.626440048
thorax  1.971629977 0.5526450276 -3.263710022
lowerneck  -12.5145998 -7.292079926 -5.066130161
upperneck  12.11369991 -9.922489166 7.395599842
head  6.363349915 -4.404729843 2.234179974
lclavicle  0 -4.497500157e-015 -2.743230041e-014
lhumerus  -47.32239914 31.54109955 62.73500061
lradius  -0.01286775433 -6.507048965e-006 29.29549789
lwrist  3.192251654e-007 -3.790274832e-007 -29.12340164
lhand  -0 -36.93180084 -10.66819954
lfingers  90 7.125020027 -90
lthumb  94.82949047 -25.50305286 101.1023513
rclavicle  0 -4.497500157e-015 -2.743230041e-014
rhumerus  1.339988947 -18.64389992 -49.77510071
rradius  -5.16745672e-007 2.214343908e-008 94.94779968
rwrist  0.0006954420824 -0.004670973402 -177.796875
rhand  -1.767803804e-031 2.8854599 -7.839839935
rfingers  -90 -7.125020027 -90
rthumb  -85.55987456 -8.164666812 -61.33184513
rfemur  -12.23009014 15.48265362 12.7181139
rtibia  -0.1925190687 -0.9783371091 18.86564064
rfoot  0.9442955256 -21.75678062 -35.88513184
rtoes  4.155870898 19.58077234 -102.2330308
lfemur  -7.045101643 -15.71241283 -20.63063049
ltibia  4.280264378 0.2105158418 11.51880836
lfoot  0.4891987145 -23.99583817 35.9796524
ltoes  -8.54552519 -18.1503948 -115.7511479
80
root  34.83904441 36.57632362 -14.37569866 10.12452888 -4.378003597 3.136715412
lowerback  -9.665290833 0.1726479381 -0.7269266248
upperback  -3.350330114 0.805193007 -3.644180059
thorax  1.983080029 0.5665540099 -3.273040056
lowerneck  -12.52449989 -7.340060234 -5.065830231
upperneck  12.11575413 -9.990171432 7.414337635
head  6.371079922 -4.434969902 2.232480049
lclavicle  0 -4.497500157e-015 -2.743230041e-014
lhumerus  -47.32180023 31.65410042 62.64670181
lradius  -0.01432593074 -6.507048965e-006 29.24600029
lwrist  3.192251654e-007 -3.790274832e-007 -29.30060005
lhand  -0 -36.97650146 -10.65530014
lfingers  90 7.125020027 -90
lthumb  94.84770975 -25.48881061 101.1490482
rclavicle  0 -4.497500157e-015 -2.743230041e-014
rhumerus  2.898351431 -18.81550026 -49.47040176
rradius  -5.16745672e-007 2.214343908e-008 94.28299713
rwrist  0.0006954420824 -0.004670973402 -177.7940063
rhand  -1.768154169e-031 3.10255003 -7.731339931
rfingers  -90 -7.125020027 -90
rthumb  -85.46040512 -8.273855007 -61.11298556
rfemur  -12.23493195 15.50881195 12.72545242
rtibia  -0.1947903633 -0.9583744407 18.86999702
rfoot  0.9366586804 -21.71395683 -35.94102097
rtoes  4.173678213 19.5771266 -102.2861703
lfemur  -7.0349226 -15.74735069 -20.6408062
ltibia  4.310640335 0.2059824914 11.47751427
lfoot  0.4851879478 -23.95929527 35.9579277
ltoes  -8.554406996 -18.14632105 -115.7796629
